<svg width="441" height="394" viewBox="0 0 441 394" fill="none" xmlns="http://www.w3.org/2000/svg">
<path d="M192.092 1.1194C189.62 -0.736098 186.108 -0.232197 184.253 2.2405L91.2915 125.44H38.0925C24.5805 126.366 12.4045 133.921 5.57652 145.617C-1.25158 157.312 -1.84538 171.629 3.99452 183.851C9.83042 196.07 21.3425 204.605 34.7325 206.64L64.9705 340.479V340.483C68.1853 355.444 76.4545 368.846 88.3885 378.432C100.319 388.018 115.186 393.205 130.491 393.12H309.691C324.918 393.234 339.726 388.128 351.644 378.651C363.566 369.175 371.882 355.901 375.21 341.042L405.448 207.202C418.839 205.163 430.35 196.628 436.186 184.409C442.025 172.19 441.432 157.87 434.604 146.175C427.775 134.48 415.599 126.925 402.087 126.003H355.049L262.088 2.80341V2.7995C260.232 0.326802 256.72 -0.173193 254.248 1.68231C251.775 3.53781 251.271 7.0456 253.127 9.5221L341.049 125.442H105.289L193.211 8.9621C194.101 7.7746 194.484 6.2824 194.273 4.8098C194.062 3.341 193.277 2.0129 192.09 1.1223L192.092 1.1194ZM364.012 338.239C361.321 350.637 354.458 361.735 344.574 369.684C334.688 377.634 322.375 381.95 309.691 381.918H130.491C117.714 382.082 105.268 377.821 95.2683 369.859C85.2643 361.902 78.3233 350.73 75.6123 338.238L46.4913 207.198H393.691L364.012 338.239ZM431.211 166.319V166.323C431.211 174.194 428.082 181.741 422.516 187.307C416.95 192.874 409.403 196.003 401.532 196.003H37.532C27.9851 194.682 19.673 188.807 15.243 180.249C10.8094 171.69 10.8094 161.515 15.243 152.956C19.6727 144.397 27.985 138.522 37.532 137.202H401.532C409.403 137.049 417.012 140.034 422.684 145.495C428.356 150.959 431.622 158.448 431.77 166.323L431.211 166.319Z" fill="#18AD18"/>
</svg>
