<svg width="393" height="394" viewBox="0 0 393 394" fill="none" xmlns="http://www.w3.org/2000/svg">
<path d="M168.478 0C159.255 0 151.072 6.96068 149.506 16.1833L144.112 48.2114C138.891 50.1256 133.84 52.3921 128.794 54.6544L101.987 35.6824C94.5038 30.2878 84.0625 31.3275 77.446 37.7706L62.6593 52.5662L52.5619 62.4896V62.6636L38.1182 77.281L37.9442 77.4551C31.5012 83.8981 30.109 94.5126 35.682 102.169L54.4804 128.798C52.0398 133.675 50.1255 138.722 48.2114 143.942L16.1833 149.511C6.96047 151.077 0 159.086 0 168.483V224.534C0 233.757 6.78673 242.109 16.1833 243.676L48.2114 249.071C50.1256 254.291 52.0398 259.338 54.4804 264.389L35.8558 290.844C30.4612 298.501 31.1573 309.115 37.77 315.558L52.7394 330.52L62.8367 340.443L77.4542 355.07C83.8884 361.686 94.6866 363.07 102.343 357.51L128.972 338.538C133.845 340.796 138.896 343.067 144.116 344.807L149.511 377.009C151.077 386.232 159.26 393.018 168.483 393.018H224.351C233.748 393.018 242.105 386.401 243.672 377.009L249.066 344.807C254.117 343.067 259.159 340.796 264.211 338.538L290.839 357.51C298.675 363.079 309.294 361.691 315.729 355.07L330.52 340.626V340.452L340.613 330.528L355.404 315.567C361.847 309.124 362.887 298.509 357.492 291.017L338.52 264.389C340.782 259.338 342.875 254.291 344.789 249.071L376.991 243.676C386.388 242.11 393 233.753 393 224.534V168.483C393 159.086 386.209 151.077 376.991 149.511L344.624 143.942C342.701 138.891 340.796 133.845 338.525 128.798L357.497 102.169C362.892 94.5124 361.852 83.8976 355.409 77.2799L340.618 62.4887L330.525 52.5654L315.555 37.7742C309.121 31.3312 298.505 30.2914 290.841 35.686L264.39 54.4843C259.339 52.2221 254.293 50.1295 249.072 48.2153L243.678 16.1873C242.112 6.79034 233.754 0.00395107 224.357 0.00395107H189.375L168.478 0ZM168.478 9.92337H224.346C228.701 9.92337 233.226 13.5777 233.922 17.7585L239.834 52.7402C240.008 54.4803 241.404 56.0465 243.14 56.5685C249.931 58.8307 256.37 61.441 262.635 64.5777C264.201 65.2781 266.289 65.2781 267.686 64.2296L296.751 43.6917C300.236 41.2511 305.626 41.6079 308.763 44.7315V44.9055L323.554 59.5229L333.477 69.6203L348.273 84.2466C351.235 87.3789 351.927 93.1216 349.491 96.4284L328.953 125.498C327.905 126.891 327.735 128.979 328.431 130.549C331.563 136.81 334.348 143.252 336.614 150.039C337.136 151.779 338.702 153.172 340.443 153.346L375.424 159.262C379.596 159.963 383.081 164.139 383.081 168.485V224.536C383.081 228.717 379.596 233.241 375.424 233.933L340.443 239.845C338.702 240.202 337.136 241.416 336.614 243.151C334.356 249.942 331.563 256.381 328.431 262.646C327.739 264.212 327.909 266.3 328.953 267.697L349.491 296.592C351.931 300.072 351.405 305.641 348.273 308.774L333.482 323.565L323.558 333.662L308.763 348.115C305.8 351.247 300.057 351.939 296.751 349.507L267.686 328.969C266.289 327.929 264.201 327.751 262.635 328.621C256.366 331.753 249.932 334.363 243.14 336.63C241.404 337.148 240.008 338.714 239.834 340.454L233.922 375.431C233.23 379.442 228.701 383.266 224.346 383.266H168.478C164.297 383.266 159.947 379.612 159.255 375.431L153.339 340.45C152.991 338.71 151.599 337.143 150.032 336.626C143.246 334.363 136.803 331.749 130.542 328.617C128.802 327.742 126.888 327.925 125.492 328.965L96.779 349.502C93.4726 351.943 87.3821 351.243 84.2498 348.11L69.6323 333.667L59.7089 323.569L44.8999 308.774C41.7676 305.641 41.2456 300.068 43.6818 296.592L64.2197 267.697C65.2594 266.3 65.4379 264.212 64.5677 262.646C61.4354 256.377 58.6511 249.943 56.3845 243.151C55.8668 241.416 54.2963 240.193 52.5561 239.845L17.579 233.933C13.5765 233.241 9.74379 228.712 9.74379 224.536V168.485C9.74379 164.139 13.5722 159.958 17.579 159.262L52.5606 153.167C54.3008 152.993 55.6929 151.601 56.389 150.035C58.6511 143.248 61.4399 136.805 64.5722 130.545C65.4466 128.979 65.2726 126.891 64.2241 125.494L43.5114 96.424C41.2492 93.1176 41.9453 87.3751 44.9035 84.2423L69.6178 59.5279L84.409 44.9105V44.7365C87.5413 41.6042 92.9358 41.2561 96.4159 43.6967L125.486 64.2347C126.878 65.2744 128.966 65.2744 130.537 64.5827C136.797 61.4504 143.24 58.8402 150.027 56.5736C151.593 56.0515 152.985 54.4853 153.333 52.7452L159.25 17.7636C159.946 13.5785 164.296 9.92404 168.477 9.92404L168.478 9.92337ZM196.499 114.877C151.419 114.877 114.872 151.6 114.872 196.687C114.872 241.767 151.419 278.314 196.499 278.314C241.579 278.314 278.3 241.767 278.3 196.687C278.3 151.6 241.578 114.877 196.499 114.877ZM196.499 124.622C236.179 124.622 268.559 156.824 268.559 196.683C268.559 236.541 236.179 268.569 196.499 268.569C156.641 268.569 124.612 236.541 124.612 196.683C124.612 156.824 156.641 124.622 196.499 124.622V124.622Z" fill="#18AD18"/>
</svg>
