<svg width="529" height="137" viewBox="0 0 529 137" fill="none" xmlns="http://www.w3.org/2000/svg">
<path d="M189.296 18.7998C195.76 18.7998 201.2 20.9758 205.616 25.3278C210.032 29.6798 212.24 35.0238 212.24 41.3598C212.24 47.6958 210.032 53.0398 205.616 57.3918C201.2 61.7438 195.76 63.9198 189.296 63.9198H177.488V85.9998H164.24V18.7998H189.296ZM189.296 51.5358C192.112 51.5358 194.448 50.5758 196.304 48.6558C198.16 46.6718 199.088 44.2398 199.088 41.3598C199.088 38.4158 198.16 35.9838 196.304 34.0638C194.448 32.1438 192.112 31.1838 189.296 31.1838H177.488V51.5358H189.296ZM246.977 36.6558C252.225 36.6558 256.545 38.4158 259.937 41.9358C263.393 45.4558 265.121 50.3198 265.121 56.5278V85.9998H252.737V58.0638C252.737 54.8638 251.873 52.4318 250.145 50.7678C248.417 49.0398 246.113 48.1758 243.233 48.1758C240.033 48.1758 237.473 49.1678 235.553 51.1518C233.633 53.1358 232.673 56.1118 232.673 60.0798V85.9998H220.289V18.7998H232.673V43.3758C235.681 38.8958 240.449 36.6558 246.977 36.6558ZM312.175 37.9998H324.559V85.9998H312.175V80.3358C308.463 85.0078 303.247 87.3438 296.527 87.3438C290.127 87.3438 284.623 84.9118 280.015 80.0478C275.471 75.1198 273.199 69.1038 273.199 61.9998C273.199 54.8958 275.471 48.9118 280.015 44.0478C284.623 39.1198 290.127 36.6558 296.527 36.6558C303.247 36.6558 308.463 38.9918 312.175 43.6638V37.9998ZM289.327 71.7918C291.823 74.2878 294.991 75.5358 298.831 75.5358C302.671 75.5358 305.839 74.2878 308.335 71.7918C310.895 69.2318 312.175 65.9678 312.175 61.9998C312.175 58.0318 310.895 54.7998 308.335 52.3038C305.839 49.7438 302.671 48.4638 298.831 48.4638C294.991 48.4638 291.823 49.7438 289.327 52.3038C286.831 54.7998 285.583 58.0318 285.583 61.9998C285.583 65.9678 286.831 69.2318 289.327 71.7918ZM348.173 46.2558C349.325 43.1838 351.213 40.8798 353.837 39.3438C356.525 37.8078 359.501 37.0398 362.765 37.0398V50.8638C358.989 50.4158 355.597 51.1838 352.589 53.1678C349.645 55.1518 348.173 58.4478 348.173 63.0558V85.9998H335.789V37.9998H348.173V46.2558ZM423.096 36.6558C428.6 36.6558 432.984 38.4478 436.248 42.0318C439.576 45.6158 441.24 50.4158 441.24 56.4318V85.9998H428.856V57.2958C428.856 54.4158 428.152 52.1758 426.744 50.5758C425.336 48.9758 423.352 48.1758 420.792 48.1758C417.976 48.1758 415.768 49.1038 414.168 50.9598C412.632 52.8158 411.864 55.5038 411.864 59.0238V85.9998H399.48V57.2958C399.48 54.4158 398.776 52.1758 397.368 50.5758C395.96 48.9758 393.976 48.1758 391.416 48.1758C388.664 48.1758 386.456 49.1038 384.792 50.9598C383.192 52.8158 382.392 55.5038 382.392 59.0238V85.9998H370.008V37.9998H382.392V43.0878C385.272 38.7998 389.72 36.6558 395.736 36.6558C401.624 36.6558 405.976 38.9598 408.792 43.5678C411.992 38.9598 416.76 36.6558 423.096 36.6558ZM488.238 37.9998H500.622V85.9998H488.238V80.3358C484.526 85.0078 479.31 87.3438 472.59 87.3438C466.19 87.3438 460.686 84.9118 456.078 80.0478C451.534 75.1198 449.262 69.1038 449.262 61.9998C449.262 54.8958 451.534 48.9118 456.078 44.0478C460.686 39.1198 466.19 36.6558 472.59 36.6558C479.31 36.6558 484.526 38.9918 488.238 43.6638V37.9998ZM465.39 71.7918C467.886 74.2878 471.054 75.5358 474.894 75.5358C478.734 75.5358 481.902 74.2878 484.398 71.7918C486.958 69.2318 488.238 65.9678 488.238 61.9998C488.238 58.0318 486.958 54.7998 484.398 52.3038C481.902 49.7438 478.734 48.4638 474.894 48.4638C471.054 48.4638 467.886 49.7438 465.39 52.3038C462.894 54.7998 461.646 58.0318 461.646 61.9998C461.646 65.9678 462.894 69.2318 465.39 71.7918Z" fill="black"/>
<path d="M173.768 122.288C171.224 122.288 169.12 121.448 167.456 119.768C165.792 118.088 164.96 116.032 164.96 113.6C164.96 111.168 165.792 109.112 167.456 107.432C169.12 105.752 171.224 104.912 173.768 104.912C175.32 104.912 176.744 105.288 178.04 106.04C179.336 106.776 180.336 107.776 181.04 109.04L179.552 109.904C179.024 108.88 178.24 108.064 177.2 107.456C176.16 106.848 175.016 106.544 173.768 106.544C171.672 106.544 169.96 107.224 168.632 108.584C167.304 109.944 166.64 111.616 166.64 113.6C166.64 115.584 167.304 117.256 168.632 118.616C169.96 119.976 171.672 120.656 173.768 120.656C175.016 120.656 176.16 120.352 177.2 119.744C178.24 119.136 179.024 118.32 179.552 117.296L181.04 118.136C180.352 119.4 179.352 120.408 178.04 121.16C176.744 121.912 175.32 122.288 173.768 122.288ZM187.883 120.416H196.043V122H186.203V105.2H195.923V106.784H187.883V112.736H195.323V114.32H187.883V120.416ZM211.889 105.2V106.784H206.729V122H205.049V106.784H199.889V105.2H211.889ZM222.69 111.44C224.194 111.44 225.45 111.944 226.458 112.952C227.466 113.96 227.97 115.216 227.97 116.72C227.97 118.224 227.466 119.48 226.458 120.488C225.45 121.496 224.194 122 222.69 122H216.69V105.2H218.37V111.44H222.69ZM222.69 120.416C223.73 120.416 224.586 120.072 225.258 119.384C225.946 118.68 226.29 117.792 226.29 116.72C226.29 115.648 225.946 114.768 225.258 114.08C224.586 113.376 223.73 113.024 222.69 113.024H218.37V120.416H222.69ZM252.831 122L251.271 117.872H243.303L241.743 122H239.967L246.423 105.2H248.151L254.607 122H252.831ZM243.903 116.288H250.671L247.287 107.288L243.903 116.288ZM271.164 105.2V122H269.484V106.784H260.844V122H259.164V105.2H271.164ZM287.968 105.2V106.784H282.808V122H281.128V106.784H275.968V105.2H287.968ZM294.448 120.416H302.608V122H292.768V105.2H302.488V106.784H294.448V112.736H301.888V114.32H294.448V120.416ZM319.655 122H317.447L309.575 113.864V122H307.895V105.2H309.575V112.88L317.207 105.2H319.415L311.351 113.36L319.655 122Z" fill="black"/>
<path d="M128.311 28.6894C115.392 15.7702 94.397 15.7702 81.6016 28.6894L79.1173 31.2986L76.5081 28.6894C63.5889 15.7702 42.5941 15.7702 29.7987 28.6894C16.7546 41.6094 16.7546 62.4791 29.6739 75.3987L72.408 118.009C76.0102 121.611 81.9737 121.611 85.7008 118.009L128.311 75.3987C141.23 62.4787 141.23 41.609 128.311 28.6894ZM105.329 72.4173C93.9001 72.4173 84.583 63.1003 84.583 51.6714C84.583 40.2425 93.9001 30.9255 105.329 30.9255C116.758 30.9255 126.075 40.2425 126.075 51.6714C126.075 63.1003 116.758 72.4173 105.329 72.4173Z" fill="black"/>
<path d="M114.522 48.1932H108.807V42.4784C108.807 40.6153 107.317 39 105.329 39C103.466 39 101.85 40.4905 101.85 42.4784V48.1932H96.1356C94.2725 48.1932 92.6572 49.6837 92.6572 51.6716C92.6572 53.6594 94.1477 55.15 96.1356 55.15H101.85V60.8648C101.85 62.7279 103.341 64.3432 105.329 64.3432C107.192 64.3432 108.807 62.8527 108.807 60.8648V55.15H114.522C116.385 55.15 118 53.6595 118 51.6716C118 49.6838 116.385 48.1932 114.522 48.1932Z" fill="#18AD18"/>
</svg>
