<svg width="396" height="393" viewBox="0 0 396 393" fill="none" xmlns="http://www.w3.org/2000/svg">
<path fill-rule="evenodd" clip-rule="evenodd" d="M197.956 8.77975e-05C140.52 8.77975e-05 93.8355 46.6379 93.8355 104.08C93.8355 132.179 102.193 167.954 119.246 197.268C124.686 206.615 131.072 215.323 138.393 222.859C137.837 228.443 136.807 233.07 135.368 236.294C133.869 239.662 132.186 241.361 130.045 242.179C117.49 246.928 88.4767 249.028 61.2221 257.55C33.9585 266.074 7.26291 282.1 0.100129 315.394H0.10334C-0.243439 317.005 0.295998 318.675 1.51938 319.78C109.61 417.407 286.263 417.407 394.354 319.78C395.575 318.675 396.114 317.005 395.77 315.394C388.607 282.097 361.912 266.071 334.654 257.55C307.4 249.028 278.393 246.925 265.867 242.179C265.867 242.179 265.864 242.176 265.858 242.176C263.241 241.178 261.42 239.437 259.808 236.3C258.28 233.327 257.15 229.105 256.469 223.896C264.214 216.126 270.943 207.046 276.63 197.268C293.676 167.96 302.034 132.18 302.034 104.08C302.034 46.6436 255.396 0 197.962 0L197.956 8.77975e-05ZM197.956 9.2055C250.419 9.2055 292.822 51.6117 292.822 104.071C292.822 130.31 284.717 165.026 268.666 192.623C252.615 220.224 229.23 240.453 197.953 240.453C166.654 240.453 143.256 220.225 127.198 192.623C111.141 165.023 103.036 130.307 103.036 104.071C103.036 51.6117 145.49 9.2055 197.951 9.2055H197.956ZM146.618 230.476C160.816 242.243 177.953 249.664 197.956 249.664C217.539 249.664 234.371 242.542 248.389 231.192C249.15 234.592 250.181 237.703 251.616 240.493C253.995 245.127 257.688 248.902 262.585 250.771V250.775C262.588 250.775 262.591 250.778 262.594 250.778C278.298 256.737 306.067 258.249 331.904 266.328C356.972 274.166 379.098 287.167 386.162 314.745C282.279 406.61 113.6 406.61 9.71721 314.745C16.7812 287.166 38.9043 274.166 63.9781 266.328C89.8197 258.25 117.603 256.734 133.327 250.778H133.323H133.339C138.194 248.922 141.633 244.867 143.784 240.038C145.062 237.17 145.968 233.969 146.623 230.482L146.618 230.476Z" fill="#18AD18"/>
</svg>
